<svg width="357" height="27" viewBox="0 0 357 27" fill="none" xmlns="http://www.w3.org/2000/svg">
<path d="M44.5002 5.084H38.0202L23.5482 26.468H21.0282L6.48423 5.084H0.00422727V1.304H17.1042V5.084H12.3882L22.9002 20.888L33.3042 5.084H28.0842V1.304H44.5002V5.084ZM59.5578 26.468C55.8618 26.468 52.5378 25.928 49.5858 24.848C46.6578 23.768 44.3538 22.256 42.6738 20.312C41.0178 18.344 40.1898 16.124 40.1898 13.652C40.1898 11.18 41.0178 8.972 42.6738 7.028C44.3538 5.06 46.6578 3.536 49.5858 2.456C52.5378 1.352 55.8618 0.799998 59.5578 0.799998C63.2298 0.799998 66.5298 1.352 69.4578 2.456C72.4098 3.536 74.7138 5.06 76.3698 7.028C78.0258 8.972 78.8538 11.18 78.8538 13.652C78.8538 16.124 78.0258 18.344 76.3698 20.312C74.7138 22.256 72.4218 23.768 69.4938 24.848C66.5658 25.928 63.2538 26.468 59.5578 26.468ZM59.5218 22.58C62.3778 22.58 64.8858 22.196 67.0458 21.428C69.2298 20.66 70.9098 19.604 72.0858 18.26C73.2618 16.916 73.8498 15.38 73.8498 13.652C73.8498 11.876 73.2618 10.316 72.0858 8.972C70.9098 7.628 69.2298 6.584 67.0458 5.84C64.8858 5.072 62.3778 4.688 59.5218 4.688C56.6418 4.688 54.1218 5.072 51.9618 5.84C49.8018 6.608 48.1338 7.676 46.9578 9.044C45.7818 10.388 45.1938 11.924 45.1938 13.652C45.1938 15.404 45.7698 16.964 46.9218 18.332C48.0978 19.676 49.7658 20.72 51.9258 21.464C54.1098 22.208 56.6418 22.58 59.5218 22.58ZM96.5635 4.544C93.9715 4.544 91.6315 4.904 89.5435 5.624C87.4555 6.344 85.7995 7.4 84.5755 8.792C83.3755 10.16 82.7755 11.792 82.7755 13.688C82.7755 15.584 83.3635 17.216 84.5395 18.584C85.7395 19.928 87.3835 20.96 89.4715 21.68C91.5835 22.376 93.9835 22.724 96.6715 22.724C99.1915 22.724 101.604 22.4 103.908 21.752C106.236 21.08 108.18 20.228 109.74 19.196V16.46H96.6715V12.896H114.312V21.176C112.032 22.784 109.356 24.068 106.284 25.028C103.236 25.988 99.9715 26.468 96.4915 26.468C92.9395 26.468 89.7475 25.964 86.9155 24.956C84.0835 23.924 81.8515 22.448 80.2195 20.528C78.5875 18.584 77.7715 16.304 77.7715 13.688C77.7715 11.096 78.5515 8.828 80.1115 6.884C81.6715 4.94 83.7835 3.44 86.4475 2.384C89.1355 1.328 92.1115 0.799998 95.3755 0.799998C101.4 0.799998 106.308 2.456 110.1 5.768V1.304H114.312V9.692L111.288 10.232C109.368 8.384 107.16 6.98 104.664 6.02C102.168 5.036 99.4675 4.544 96.5635 4.544ZM159.774 5.084H152.214V13.472C152.214 16.304 151.518 18.692 150.126 20.636C148.734 22.58 146.826 24.044 144.402 25.028C141.978 25.988 139.194 26.468 136.05 26.468C132.858 26.468 130.038 25.988 127.59 25.028C125.166 24.044 123.27 22.58 121.902 20.636C120.558 18.692 119.886 16.304 119.886 13.472V5.084H112.29V1.304H131.622V5.084H124.566L124.638 13.652C124.662 16.7 125.694 18.956 127.734 20.42C129.774 21.86 132.546 22.58 136.05 22.58C139.53 22.58 142.29 21.848 144.33 20.384C146.394 18.896 147.438 16.628 147.462 13.58L147.534 5.084H140.55V1.304H159.774V5.084ZM191.249 10.988V5.084H168.425V11.96H179.189V8.504H183.005V18.98H179.189V15.524H168.425V22.22H191.249V16.316H195.497V26H156.113V22.22H163.709V5.084H156.113V1.304H195.497V10.988H191.249ZM237.522 5.084V22.22H245.118V26H225.138V22.22H232.734V15.164H208.794V22.22H216.354V26H196.338V22.22H204.006V5.084H196.338V1.304H216.354V5.084H208.794V11.6H232.734V5.084H225.138V1.304H245.118V5.084H237.522ZM263.387 26.468C259.691 26.468 256.367 25.928 253.415 24.848C250.487 23.768 248.183 22.256 246.503 20.312C244.847 18.344 244.019 16.124 244.019 13.652C244.019 11.18 244.847 8.972 246.503 7.028C248.183 5.06 250.487 3.536 253.415 2.456C256.367 1.352 259.691 0.799998 263.387 0.799998C267.059 0.799998 270.359 1.352 273.287 2.456C276.239 3.536 278.543 5.06 280.199 7.028C281.855 8.972 282.683 11.18 282.683 13.652C282.683 16.124 281.855 18.344 280.199 20.312C278.543 22.256 276.251 23.768 273.323 24.848C270.395 25.928 267.083 26.468 263.387 26.468ZM263.351 22.58C266.207 22.58 268.715 22.196 270.875 21.428C273.059 20.66 274.739 19.604 275.915 18.26C277.091 16.916 277.679 15.38 277.679 13.652C277.679 11.876 277.091 10.316 275.915 8.972C274.739 7.628 273.059 6.584 270.875 5.84C268.715 5.072 266.207 4.688 263.351 4.688C260.471 4.688 257.951 5.072 255.791 5.84C253.631 6.608 251.963 7.676 250.787 9.044C249.611 10.388 249.023 11.924 249.023 13.652C249.023 15.404 249.599 16.964 250.751 18.332C251.927 19.676 253.595 20.72 255.755 21.464C257.939 22.208 260.471 22.58 263.351 22.58ZM326.297 5.084H318.737V13.472C318.737 16.304 318.041 18.692 316.649 20.636C315.257 22.58 313.349 24.044 310.925 25.028C308.501 25.988 305.717 26.468 302.573 26.468C299.381 26.468 296.561 25.988 294.113 25.028C291.689 24.044 289.793 22.58 288.425 20.636C287.081 18.692 286.409 16.304 286.409 13.472V5.084H278.813V1.304H298.145V5.084H291.089L291.161 13.652C291.185 16.7 292.217 18.956 294.257 20.42C296.297 21.86 299.069 22.58 302.573 22.58C306.053 22.58 308.813 21.848 310.853 20.384C312.917 18.896 313.961 16.628 313.985 13.58L314.057 5.084H307.073V1.304H326.297V5.084ZM341.661 11.78C345.405 12.212 348.369 12.752 350.553 13.4C352.737 14.048 354.333 14.876 355.341 15.884C356.349 16.868 356.853 18.128 356.853 19.664C356.853 21.8 355.821 23.48 353.757 24.704C351.717 25.904 348.897 26.504 345.297 26.504C342.345 26.504 339.393 26.072 336.441 25.208C333.513 24.32 330.813 23.108 328.341 21.572V26H324.021V16.928L326.901 16.352C329.277 18.392 332.085 19.976 335.325 21.104C338.565 22.232 341.889 22.796 345.297 22.796C347.385 22.796 349.005 22.532 350.157 22.004C351.333 21.452 351.921 20.672 351.921 19.664C351.921 18.944 351.537 18.38 350.769 17.972C350.001 17.54 348.717 17.168 346.917 16.856C345.117 16.544 342.321 16.16 338.529 15.704C335.001 15.296 332.193 14.78 330.105 14.156C328.017 13.508 326.493 12.692 325.533 11.708C324.597 10.7 324.129 9.44 324.129 7.928C324.129 5.696 325.185 3.956 327.297 2.708C329.409 1.46 332.397 0.835998 336.261 0.835998C338.997 0.835998 341.601 1.232 344.073 2.024C346.569 2.792 348.849 3.884 350.913 5.3V1.304H355.161V10.196L352.425 10.736C350.529 8.768 348.201 7.256 345.441 6.2C342.681 5.144 339.609 4.616 336.225 4.616C334.065 4.616 332.337 4.916 331.041 5.516C329.745 6.116 329.097 6.92 329.097 7.928C329.097 8.624 329.457 9.188 330.177 9.62C330.897 10.028 332.109 10.388 333.813 10.7C335.517 11.012 338.133 11.372 341.661 11.78Z" fill="black"/>
</svg>
