<svg width="246" height="18" viewBox="0 0 246 18" fill="none" xmlns="http://www.w3.org/2000/svg">
<path d="M29.6058 3.584H25.4298L15.8778 17.312H13.7658L4.14182 3.584H0.0378168V0.535999H11.6298V3.584H8.96582L15.3498 12.872L21.6378 3.584H18.5658V0.535999H29.6058V3.584ZM40.583 17.312C38.071 17.312 35.815 16.944 33.815 16.208C31.831 15.472 30.271 14.456 29.135 13.16C28.015 11.848 27.455 10.384 27.455 8.768C27.455 7.152 28.015 5.696 29.135 4.4C30.271 3.088 31.831 2.064 33.815 1.328C35.815 0.575999 38.071 0.199999 40.583 0.199999C43.095 0.199999 45.343 0.575999 47.327 1.328C49.311 2.064 50.863 3.088 51.983 4.4C53.103 5.696 53.663 7.152 53.663 8.768C53.663 10.384 53.103 11.848 51.983 13.16C50.863 14.456 49.311 15.472 47.327 16.208C45.343 16.944 43.095 17.312 40.583 17.312ZM40.559 14.168C42.383 14.168 43.975 13.936 45.335 13.472C46.711 12.992 47.759 12.344 48.479 11.528C49.215 10.712 49.583 9.792 49.583 8.768C49.583 7.712 49.215 6.776 48.479 5.96C47.759 5.144 46.719 4.504 45.359 4.04C43.999 3.576 42.399 3.344 40.559 3.344C38.719 3.344 37.111 3.584 35.735 4.064C34.375 4.528 33.335 5.176 32.615 6.008C31.895 6.824 31.535 7.744 31.535 8.768C31.535 9.824 31.895 10.76 32.615 11.576C33.335 12.392 34.375 13.032 35.735 13.496C37.095 13.944 38.703 14.168 40.559 14.168ZM66.2129 3.224C64.5649 3.224 63.0769 3.448 61.7489 3.896C60.4209 4.328 59.3729 4.968 58.6049 5.816C57.8529 6.648 57.4769 7.64 57.4769 8.792C57.4769 9.976 57.8529 10.984 58.6049 11.816C59.3729 12.632 60.4289 13.248 61.7729 13.664C63.1169 14.08 64.6609 14.288 66.4049 14.288C67.9569 14.288 69.4609 14.096 70.9169 13.712C72.3889 13.312 73.5809 12.816 74.4929 12.224V10.928H66.4049V8.072H78.2129V13.808C76.6929 14.848 74.9009 15.696 72.8369 16.352C70.7729 16.992 68.5729 17.312 66.2369 17.312C63.7729 17.312 61.5649 16.976 59.6129 16.304C57.6769 15.616 56.1569 14.632 55.0529 13.352C53.9489 12.056 53.3969 10.536 53.3969 8.792C53.3969 7.08 53.9169 5.576 54.9569 4.28C55.9969 2.968 57.4129 1.96 59.2049 1.256C60.9969 0.551999 62.9889 0.199999 65.1809 0.199999C69.0689 0.199999 72.2689 1.176 74.7809 3.128V0.535999H78.2129V6.008L75.6929 6.488C74.4129 5.464 72.9649 4.664 71.3489 4.088C69.7489 3.512 68.0369 3.224 66.2129 3.224ZM109.268 3.584H104.444V8.576C104.444 10.48 103.964 12.088 103.004 13.4C102.044 14.712 100.732 15.696 99.0682 16.352C97.4202 16.992 95.5482 17.312 93.4522 17.312C91.2922 17.312 89.3882 16.992 87.7402 16.352C86.0922 15.696 84.8042 14.72 83.8762 13.424C82.9482 12.112 82.4842 10.496 82.4842 8.576V3.584H77.6122V0.535999H90.6922V3.584H86.3002L86.3482 8.624C86.3642 10.528 87.0042 11.928 88.2682 12.824C89.5482 13.72 91.2762 14.168 93.4522 14.168C95.6122 14.168 97.3322 13.72 98.6122 12.824C99.9082 11.912 100.564 10.488 100.58 8.552L100.628 3.584H96.2842V0.535999H109.268V3.584ZM130.684 7.184V3.584H116.356V7.52H122.764V5.552H125.812V12.368H122.764V10.376H116.356V13.952H130.684V10.352H134.116V17H107.644V13.952H112.516V3.584H107.644V0.535999H134.116V7.184H130.684ZM163.094 3.584V13.952H167.966V17H154.358V13.952H159.206V10.016H144.182V13.952H149.03V17H135.374V13.952H140.294V3.584H135.374V0.535999H149.03V3.584H144.182V7.16H159.206V3.584H154.358V0.535999H167.966V3.584H163.094ZM180.988 17.312C178.476 17.312 176.22 16.944 174.22 16.208C172.236 15.472 170.676 14.456 169.54 13.16C168.42 11.848 167.86 10.384 167.86 8.768C167.86 7.152 168.42 5.696 169.54 4.4C170.676 3.088 172.236 2.064 174.22 1.328C176.22 0.575999 178.476 0.199999 180.988 0.199999C183.5 0.199999 185.748 0.575999 187.732 1.328C189.716 2.064 191.268 3.088 192.388 4.4C193.508 5.696 194.068 7.152 194.068 8.768C194.068 10.384 193.508 11.848 192.388 13.16C191.268 14.456 189.716 15.472 187.732 16.208C185.748 16.944 183.5 17.312 180.988 17.312ZM180.964 14.168C182.788 14.168 184.38 13.936 185.74 13.472C187.116 12.992 188.164 12.344 188.884 11.528C189.62 10.712 189.988 9.792 189.988 8.768C189.988 7.712 189.62 6.776 188.884 5.96C188.164 5.144 187.124 4.504 185.764 4.04C184.404 3.576 182.804 3.344 180.964 3.344C179.124 3.344 177.516 3.584 176.14 4.064C174.78 4.528 173.74 5.176 173.02 6.008C172.3 6.824 171.94 7.744 171.94 8.768C171.94 9.824 172.3 10.76 173.02 11.576C173.74 12.392 174.78 13.032 176.14 13.496C177.5 13.944 179.108 14.168 180.964 14.168ZM223.889 3.584H219.065V8.576C219.065 10.48 218.585 12.088 217.625 13.4C216.665 14.712 215.353 15.696 213.689 16.352C212.041 16.992 210.169 17.312 208.073 17.312C205.913 17.312 204.009 16.992 202.361 16.352C200.713 15.696 199.425 14.72 198.497 13.424C197.569 12.112 197.105 10.496 197.105 8.576V3.584H192.233V0.535999H205.313V3.584H200.921L200.969 8.624C200.985 10.528 201.625 11.928 202.889 12.824C204.169 13.72 205.897 14.168 208.073 14.168C210.233 14.168 211.953 13.72 213.233 12.824C214.529 11.912 215.185 10.488 215.201 8.552L215.249 3.584H210.905V0.535999H223.889V3.584ZM235.237 7.232C237.685 7.552 239.629 7.936 241.069 8.384C242.509 8.832 243.557 9.4 244.213 10.088C244.885 10.776 245.221 11.64 245.221 12.68C245.221 14.12 244.541 15.256 243.181 16.088C241.821 16.92 239.933 17.336 237.517 17.336C235.645 17.336 233.765 17.08 231.877 16.568C230.005 16.04 228.229 15.28 226.549 14.288V17H223.045V10.808L225.469 10.328C227.117 11.624 228.981 12.624 231.061 13.328C233.157 14.016 235.309 14.36 237.517 14.36C238.701 14.36 239.605 14.216 240.229 13.928C240.853 13.624 241.165 13.208 241.165 12.68C241.165 12.296 240.925 11.992 240.445 11.768C239.981 11.544 239.205 11.344 238.117 11.168C237.045 10.992 235.181 10.736 232.525 10.4C230.221 10.112 228.389 9.744 227.029 9.296C225.669 8.848 224.677 8.28 224.053 7.592C223.429 6.904 223.117 6.04 223.117 5C223.117 3.496 223.821 2.328 225.229 1.496C226.637 0.647999 228.621 0.223999 231.181 0.223999C232.861 0.223999 234.501 0.455999 236.101 0.92C237.717 1.368 239.221 2.016 240.613 2.864V0.535999H244.069V6.584L241.765 7.04C240.549 5.84 239.021 4.912 237.181 4.256C235.357 3.6 233.357 3.272 231.181 3.272C229.981 3.272 229.013 3.432 228.277 3.752C227.541 4.072 227.173 4.488 227.173 5C227.173 5.384 227.389 5.688 227.821 5.912C228.269 6.12 229.005 6.312 230.029 6.488C231.053 6.664 232.789 6.912 235.237 7.232Z" fill="black"/>
</svg>
