<svg width="218" height="45" viewBox="0 0 218 45" fill="none" xmlns="http://www.w3.org/2000/svg">
<path d="M120.371 12.868C120.771 12.868 121.123 12.76 121.427 12.544C121.739 12.328 121.895 12.004 121.895 11.572C121.895 11.132 121.727 10.796 121.391 10.564C121.063 10.332 120.591 10.132 119.975 9.964C119.367 9.788 118.923 9.636 118.643 9.508C118.371 9.38 118.111 9.212 117.863 9.004C117.367 8.588 117.119 7.944 117.119 7.072C117.119 6.36 117.371 5.748 117.875 5.236C118.387 4.724 119.083 4.468 119.963 4.468C120.387 4.468 120.827 4.532 121.283 4.66C121.747 4.78 122.035 4.84 122.147 4.84C122.259 4.84 122.359 4.76 122.447 4.6H122.579L122.663 7.024H122.471C122.087 6.328 121.683 5.772 121.259 5.356C120.843 4.932 120.387 4.72 119.891 4.72C119.403 4.72 119.023 4.836 118.751 5.068C118.479 5.292 118.343 5.596 118.343 5.98C118.343 6.356 118.503 6.648 118.823 6.856C119.151 7.056 119.551 7.22 120.023 7.348C120.495 7.476 120.803 7.564 120.947 7.612C121.099 7.66 121.283 7.728 121.499 7.816C121.723 7.896 121.903 7.984 122.039 8.08C122.183 8.168 122.331 8.284 122.483 8.428C122.643 8.564 122.767 8.716 122.855 8.884C123.071 9.268 123.179 9.724 123.179 10.252C123.179 11.116 122.907 11.812 122.363 12.34C121.827 12.86 121.119 13.12 120.239 13.12C119.783 13.12 119.259 13.06 118.667 12.94C118.083 12.82 117.759 12.76 117.695 12.76C117.583 12.76 117.475 12.88 117.371 13.12H117.203L117.083 10.264H117.287C117.639 10.96 118.087 11.568 118.631 12.088C119.183 12.608 119.763 12.868 120.371 12.868ZM123.918 4.6H130.158L130.278 6.976H130.062C129.726 6.168 129.374 5.616 129.006 5.32C128.638 5.016 128.098 4.864 127.386 4.864H126.966V8.572H127.374C127.75 8.572 128.066 8.432 128.322 8.152C128.578 7.864 128.758 7.48 128.862 7H129.042V10.552H128.838C128.694 9.952 128.498 9.524 128.25 9.268C128.01 9.012 127.678 8.884 127.254 8.884H126.966V12.736H127.422C128.158 12.736 128.782 12.516 129.294 12.076C129.814 11.636 130.17 11.072 130.362 10.384H130.602L130.506 13H123.918V12.736H124.626V4.864H123.918V4.6ZM131.406 4.6H135.726V4.864H134.454V12.736H134.886C135.566 12.736 136.106 12.528 136.506 12.112C136.914 11.696 137.326 11.056 137.742 10.192H137.994L137.766 13H131.406V12.736H132.114V4.864H131.406V4.6ZM138.555 4.6H142.875V4.864H141.603V12.736H142.035C142.715 12.736 143.255 12.528 143.655 12.112C144.063 11.696 144.475 11.056 144.891 10.192H145.143L144.915 13H138.555V12.736H139.263V4.864H138.555V4.6ZM145.703 4.6H151.943L152.063 6.976H151.847C151.511 6.168 151.159 5.616 150.791 5.32C150.423 5.016 149.883 4.864 149.171 4.864H148.751V8.572H149.159C149.535 8.572 149.851 8.432 150.107 8.152C150.363 7.864 150.543 7.48 150.647 7H150.827V10.552H150.623C150.479 9.952 150.283 9.524 150.035 9.268C149.795 9.012 149.463 8.884 149.039 8.884H148.751V12.736H149.207C149.943 12.736 150.567 12.516 151.079 12.076C151.599 11.636 151.955 11.072 152.147 10.384H152.387L152.291 13H145.703V12.736H146.411V4.864H145.703V4.6ZM156.875 8.752H156.239V12.772H157.019V13H153.119V12.772H153.899V4.828H153.119V4.6H156.743C157.783 4.6 158.519 4.656 158.951 4.768C159.391 4.872 159.699 5 159.875 5.152C160.259 5.464 160.451 5.96 160.451 6.64C160.451 7.32 160.283 7.808 159.947 8.104C159.611 8.392 159.099 8.564 158.411 8.62V8.656C159.059 8.744 159.511 8.936 159.767 9.232C160.023 9.528 160.151 10.024 160.151 10.72V11.356C160.151 11.772 160.171 12.052 160.211 12.196C160.259 12.34 160.355 12.412 160.499 12.412C160.643 12.412 160.755 12.348 160.835 12.22C160.923 12.084 161.003 11.804 161.075 11.38L161.279 11.404C161.191 12.084 161.035 12.54 160.811 12.772C160.595 13.004 160.159 13.12 159.503 13.12C158.847 13.12 158.379 12.968 158.099 12.664C157.827 12.352 157.691 11.772 157.691 10.924V10.048C157.691 9.6 157.631 9.272 157.511 9.064C157.399 8.856 157.187 8.752 156.875 8.752ZM156.239 4.828V8.524H156.623C157.079 8.524 157.415 8.384 157.631 8.104C157.855 7.824 157.967 7.368 157.967 6.736V6.388C157.967 5.756 157.859 5.34 157.643 5.14C157.435 4.932 157.099 4.828 156.635 4.828H156.239Z" fill="#1E1E1E"/>
<path d="M66.3821 24.656L70.5581 12.656H68.6861V12.2H72.3581V12.656H71.2301L65.4461 29.24H63.4301L57.3101 12.656H56.2061V12.2H64.0541V12.656H62.3501L66.3821 24.656ZM81.9058 24.674V23.638C81.9058 21.93 81.8218 20.852 81.6538 20.404C81.4671 19.8907 81.2011 19.5733 80.8558 19.452C80.6598 19.3773 80.4218 19.34 80.1418 19.34C79.8618 19.34 79.6191 19.3773 79.4138 19.452C79.2178 19.5267 79.0545 19.6573 78.9238 19.844C78.7931 20.0307 78.6858 20.2267 78.6018 20.432C78.5271 20.6373 78.4665 20.9267 78.4198 21.3C78.3638 21.8413 78.3358 22.6393 78.3358 23.694V24.702C78.3358 25.8407 78.3778 26.6527 78.4618 27.138C78.5551 27.614 78.6671 27.9547 78.7978 28.16C79.0871 28.6173 79.5351 28.846 80.1418 28.846C80.8791 28.846 81.3551 28.538 81.5698 27.922C81.7938 27.2967 81.9058 26.214 81.9058 24.674ZM80.1138 29.14C78.5551 29.14 77.3885 28.72 76.6138 27.88C75.8485 27.0307 75.4658 25.808 75.4658 24.212C75.4658 22.6067 75.8765 21.3467 76.6978 20.432C77.5285 19.508 78.6998 19.046 80.2118 19.046C81.7238 19.046 82.8625 19.4847 83.6278 20.362C84.4025 21.23 84.7898 22.4667 84.7898 24.072C84.7898 25.6773 84.3978 26.9233 83.6138 27.81C82.8391 28.6967 81.6725 29.14 80.1138 29.14ZM92.2245 28.86C92.6818 28.86 92.9711 28.776 93.0925 28.608C93.2231 28.44 93.2885 28.1553 93.2885 27.754V25.038H92.3925V24.73H96.4245V25.038H95.8785V28.986H95.6685C95.5005 28.7527 95.2625 28.636 94.9545 28.636C94.8238 28.636 94.4318 28.72 93.7785 28.888C93.1345 29.056 92.5838 29.14 92.1265 29.14C90.6051 29.14 89.4245 28.7293 88.5845 27.908C87.7538 27.0867 87.3385 25.8547 87.3385 24.212C87.3385 22.56 87.7725 21.286 88.6405 20.39C89.5178 19.494 90.6938 19.046 92.1685 19.046C92.7378 19.046 93.3071 19.1207 93.8765 19.27C94.4551 19.41 94.7911 19.48 94.8845 19.48C94.9778 19.48 95.0478 19.4613 95.0945 19.424C95.1411 19.3773 95.1925 19.3027 95.2485 19.2H95.4025L95.5145 22.238H95.2625C94.8051 21.3327 94.3431 20.6233 93.8765 20.11C93.4191 19.5873 92.9058 19.326 92.3365 19.326C90.9085 19.326 90.1945 20.7213 90.1945 23.512V24.618C90.1945 26.018 90.3671 27.0773 90.7125 27.796C91.0671 28.5053 91.5711 28.86 92.2245 28.86ZM101.802 26.018C101.802 26.8767 101.947 27.5347 102.236 27.992C102.535 28.4493 103.067 28.678 103.832 28.678C104.598 28.678 105.186 28.44 105.596 27.964C106.007 27.488 106.212 26.7647 106.212 25.794V19.466H105.302V19.2H107.346V19.466H106.576V25.696C106.576 26.8533 106.32 27.7167 105.806 28.286C105.293 28.8553 104.383 29.14 103.076 29.14C101.779 29.14 100.785 28.8693 100.094 28.328C99.4129 27.7867 99.0722 26.858 99.0722 25.542V19.466H98.3022V19.2H102.712V19.466H101.802V26.018ZM109.259 19.2H116.539L116.679 21.972H116.427C116.035 21.0293 115.624 20.3853 115.195 20.04C114.766 19.6853 114.136 19.508 113.305 19.508H112.815V23.834H113.291C113.73 23.834 114.098 23.6707 114.397 23.344C114.696 23.008 114.906 22.56 115.027 22H115.237V26.144H114.999C114.831 25.444 114.602 24.9447 114.313 24.646C114.033 24.3473 113.646 24.198 113.151 24.198H112.815V28.692H113.347C114.206 28.692 114.934 28.4353 115.531 27.922C116.138 27.4087 116.553 26.7507 116.777 25.948H117.057L116.945 29H109.259V28.692H110.085V19.508H109.259V19.2ZM119.395 19.2H123.763V19.466H122.951V23.806H125.737V19.466H124.911V19.2H129.293V19.466H128.467V28.734H129.293V29H124.911V28.734H125.737V24.17H122.951V28.734H123.763V29H119.395V28.734H120.221V19.466H119.395V19.2ZM138.002 24.674V23.638C138.002 21.93 137.918 20.852 137.75 20.404C137.563 19.8907 137.297 19.5733 136.952 19.452C136.756 19.3773 136.518 19.34 136.238 19.34C135.958 19.34 135.715 19.3773 135.51 19.452C135.314 19.5267 135.15 19.6573 135.02 19.844C134.889 20.0307 134.782 20.2267 134.698 20.432C134.623 20.6373 134.562 20.9267 134.516 21.3C134.46 21.8413 134.432 22.6393 134.432 23.694V24.702C134.432 25.8407 134.474 26.6527 134.558 27.138C134.651 27.614 134.763 27.9547 134.894 28.16C135.183 28.6173 135.631 28.846 136.238 28.846C136.975 28.846 137.451 28.538 137.666 27.922C137.89 27.2967 138.002 26.214 138.002 24.674ZM136.21 29.14C134.651 29.14 133.484 28.72 132.71 27.88C131.944 27.0307 131.562 25.808 131.562 24.212C131.562 22.6067 131.972 21.3467 132.794 20.432C133.624 19.508 134.796 19.046 136.308 19.046C137.82 19.046 138.958 19.4847 139.724 20.362C140.498 21.23 140.886 22.4667 140.886 24.072C140.886 25.6773 140.494 26.9233 139.71 27.81C138.935 28.6967 137.768 29.14 136.21 29.14ZM146.517 26.018C146.517 26.8767 146.662 27.5347 146.951 27.992C147.25 28.4493 147.782 28.678 148.547 28.678C149.313 28.678 149.901 28.44 150.311 27.964C150.722 27.488 150.927 26.7647 150.927 25.794V19.466H150.017V19.2H152.061V19.466H151.291V25.696C151.291 26.8533 151.035 27.7167 150.521 28.286C150.008 28.8553 149.098 29.14 147.791 29.14C146.494 29.14 145.5 28.8693 144.809 28.328C144.128 27.7867 143.787 26.858 143.787 25.542V19.466H143.017V19.2H147.427V19.466H146.517V26.018ZM158.093 28.846C158.56 28.846 158.971 28.72 159.325 28.468C159.689 28.216 159.871 27.838 159.871 27.334C159.871 26.8207 159.675 26.4287 159.283 26.158C158.901 25.8873 158.35 25.654 157.631 25.458C156.922 25.2527 156.404 25.0753 156.077 24.926C155.76 24.7767 155.457 24.5807 155.167 24.338C154.589 23.8527 154.299 23.1013 154.299 22.084C154.299 21.2533 154.593 20.5393 155.181 19.942C155.779 19.3447 156.591 19.046 157.617 19.046C158.112 19.046 158.625 19.1207 159.157 19.27C159.699 19.41 160.035 19.48 160.165 19.48C160.296 19.48 160.413 19.3867 160.515 19.2H160.669L160.767 22.028H160.543C160.095 21.216 159.624 20.5673 159.129 20.082C158.644 19.5873 158.112 19.34 157.533 19.34C156.964 19.34 156.521 19.4753 156.203 19.746C155.886 20.0073 155.727 20.362 155.727 20.81C155.727 21.2487 155.914 21.5893 156.287 21.832C156.67 22.0653 157.137 22.2567 157.687 22.406C158.238 22.5553 158.597 22.658 158.765 22.714C158.943 22.77 159.157 22.8493 159.409 22.952C159.671 23.0453 159.881 23.148 160.039 23.26C160.207 23.3627 160.38 23.498 160.557 23.666C160.744 23.8247 160.889 24.002 160.991 24.198C161.243 24.646 161.369 25.178 161.369 25.794C161.369 26.802 161.052 27.614 160.417 28.23C159.792 28.8367 158.966 29.14 157.939 29.14C157.407 29.14 156.796 29.07 156.105 28.93C155.424 28.79 155.046 28.72 154.971 28.72C154.841 28.72 154.715 28.86 154.593 29.14H154.397L154.257 25.808H154.495C154.906 26.62 155.429 27.3293 156.063 27.936C156.707 28.5427 157.384 28.846 158.093 28.846Z" fill="#1E1E1E"/>
</svg>
